<mxfile host="app.diagrams.net" modified="2023-03-01T14:15:23.352Z" agent="5.0 (Windows NT 10.0; Win64; x64) AppleWebKit/537.36 (KHTML, like Gecko) Chrome/109.0.0.0 Safari/537.36 OPR/95.0.0.0 (Edition std-1)" etag="NIwgvEGPpA3rmQ5cbJww" version="20.8.23" type="github">
  <diagram id="C5RBs43oDa-KdzZeNtuy" name="Page-1">
    <mxGraphModel dx="1393" dy="797" grid="1" gridSize="10" guides="1" tooltips="1" connect="1" arrows="1" fold="1" page="1" pageScale="1" pageWidth="827" pageHeight="1169" math="0" shadow="0">
      <root>
        <mxCell id="WIyWlLk6GJQsqaUBKTNV-0" />
        <mxCell id="WIyWlLk6GJQsqaUBKTNV-1" parent="WIyWlLk6GJQsqaUBKTNV-0" />
        <mxCell id="j4jMSUMW0LOXMWoyHA9_-7" value="" style="edgeStyle=orthogonalEdgeStyle;rounded=0;orthogonalLoop=1;jettySize=auto;html=1;fontSize=19;" edge="1" parent="WIyWlLk6GJQsqaUBKTNV-1" source="j4jMSUMW0LOXMWoyHA9_-0" target="j4jMSUMW0LOXMWoyHA9_-2">
          <mxGeometry relative="1" as="geometry" />
        </mxCell>
        <mxCell id="j4jMSUMW0LOXMWoyHA9_-0" value="start" style="ellipse;whiteSpace=wrap;html=1;fontSize=19;" vertex="1" parent="WIyWlLk6GJQsqaUBKTNV-1">
          <mxGeometry x="340" y="40" width="120" height="80" as="geometry" />
        </mxCell>
        <mxCell id="j4jMSUMW0LOXMWoyHA9_-1" value="stop" style="ellipse;whiteSpace=wrap;html=1;fontSize=19;" vertex="1" parent="WIyWlLk6GJQsqaUBKTNV-1">
          <mxGeometry x="535" y="420" width="120" height="80" as="geometry" />
        </mxCell>
        <mxCell id="j4jMSUMW0LOXMWoyHA9_-8" value="" style="edgeStyle=orthogonalEdgeStyle;rounded=0;orthogonalLoop=1;jettySize=auto;html=1;fontSize=19;" edge="1" parent="WIyWlLk6GJQsqaUBKTNV-1" source="j4jMSUMW0LOXMWoyHA9_-2" target="j4jMSUMW0LOXMWoyHA9_-3">
          <mxGeometry relative="1" as="geometry" />
        </mxCell>
        <mxCell id="j4jMSUMW0LOXMWoyHA9_-2" value="pobierz a&amp;nbsp;&lt;br&gt;i=0&lt;br&gt;suma=0" style="whiteSpace=wrap;html=1;fontSize=19;" vertex="1" parent="WIyWlLk6GJQsqaUBKTNV-1">
          <mxGeometry x="340" y="160" width="120" height="70" as="geometry" />
        </mxCell>
        <mxCell id="j4jMSUMW0LOXMWoyHA9_-11" value="" style="edgeStyle=orthogonalEdgeStyle;rounded=0;orthogonalLoop=1;jettySize=auto;html=1;fontSize=19;" edge="1" parent="WIyWlLk6GJQsqaUBKTNV-1" source="j4jMSUMW0LOXMWoyHA9_-3" target="j4jMSUMW0LOXMWoyHA9_-9">
          <mxGeometry relative="1" as="geometry" />
        </mxCell>
        <mxCell id="j4jMSUMW0LOXMWoyHA9_-13" value="" style="edgeStyle=orthogonalEdgeStyle;rounded=0;orthogonalLoop=1;jettySize=auto;html=1;fontSize=19;" edge="1" parent="WIyWlLk6GJQsqaUBKTNV-1" source="j4jMSUMW0LOXMWoyHA9_-3" target="j4jMSUMW0LOXMWoyHA9_-10">
          <mxGeometry relative="1" as="geometry" />
        </mxCell>
        <mxCell id="j4jMSUMW0LOXMWoyHA9_-3" value="i&amp;lt;a.len" style="rhombus;whiteSpace=wrap;html=1;fontSize=19;" vertex="1" parent="WIyWlLk6GJQsqaUBKTNV-1">
          <mxGeometry x="350" y="310" width="100" height="80" as="geometry" />
        </mxCell>
        <mxCell id="j4jMSUMW0LOXMWoyHA9_-15" style="edgeStyle=orthogonalEdgeStyle;rounded=0;orthogonalLoop=1;jettySize=auto;html=1;exitX=0.5;exitY=0;exitDx=0;exitDy=0;fontSize=19;entryX=0.5;entryY=0;entryDx=0;entryDy=0;" edge="1" parent="WIyWlLk6GJQsqaUBKTNV-1" source="j4jMSUMW0LOXMWoyHA9_-9" target="j4jMSUMW0LOXMWoyHA9_-3">
          <mxGeometry relative="1" as="geometry">
            <mxPoint x="370" y="260" as="targetPoint" />
          </mxGeometry>
        </mxCell>
        <mxCell id="j4jMSUMW0LOXMWoyHA9_-9" value="suma=suma+a[i]&lt;br&gt;i+1" style="rounded=0;whiteSpace=wrap;html=1;fontSize=19;" vertex="1" parent="WIyWlLk6GJQsqaUBKTNV-1">
          <mxGeometry x="100" y="320" width="180" height="60" as="geometry" />
        </mxCell>
        <mxCell id="j4jMSUMW0LOXMWoyHA9_-16" value="" style="edgeStyle=orthogonalEdgeStyle;rounded=0;orthogonalLoop=1;jettySize=auto;html=1;fontSize=19;" edge="1" parent="WIyWlLk6GJQsqaUBKTNV-1" source="j4jMSUMW0LOXMWoyHA9_-10" target="j4jMSUMW0LOXMWoyHA9_-1">
          <mxGeometry relative="1" as="geometry" />
        </mxCell>
        <mxCell id="j4jMSUMW0LOXMWoyHA9_-10" value="wyÅ›wietl suma" style="rounded=0;whiteSpace=wrap;html=1;fontSize=19;" vertex="1" parent="WIyWlLk6GJQsqaUBKTNV-1">
          <mxGeometry x="530" y="320" width="130" height="60" as="geometry" />
        </mxCell>
        <mxCell id="j4jMSUMW0LOXMWoyHA9_-12" value="Tak" style="text;html=1;align=center;verticalAlign=middle;resizable=0;points=[];autosize=1;strokeColor=none;fillColor=none;fontSize=19;" vertex="1" parent="WIyWlLk6GJQsqaUBKTNV-1">
          <mxGeometry x="300" y="320" width="50" height="40" as="geometry" />
        </mxCell>
        <mxCell id="j4jMSUMW0LOXMWoyHA9_-14" value="Nie" style="text;html=1;align=center;verticalAlign=middle;resizable=0;points=[];autosize=1;strokeColor=none;fillColor=none;fontSize=19;" vertex="1" parent="WIyWlLk6GJQsqaUBKTNV-1">
          <mxGeometry x="460" y="320" width="50" height="40" as="geometry" />
        </mxCell>
      </root>
    </mxGraphModel>
  </diagram>
</mxfile>
